<svg width="19" height="19" viewBox="0 0 19 19" fill="none" xmlns="http://www.w3.org/2000/svg">
<path id="Arrow 4" d="M19 0.999999C19 0.447714 18.5523 -7.74732e-07 18 -1.02761e-06L9 -2.26823e-07C8.44772 -5.63998e-07 8 0.447715 8 0.999999C8 1.55228 8.44772 2 9 2L17 2L17 10C17 10.5523 17.4477 11 18 11C18.5523 11 19 10.5523 19 10L19 0.999999ZM1.70711 18.7071L10.2071 10.2071L8.79289 8.79289L0.292893 17.2929L1.70711 18.7071ZM10.2071 10.2071L18.7071 1.70711L17.2929 0.292893L8.79289 8.79289L10.2071 10.2071Z" fill="#AFABAB"/>
</svg>
